<svg width="25" height="25" viewBox="0 0 25 25" fill="none" xmlns="http://www.w3.org/2000/svg">
<path d="M20.5 22.5H18.5V20.5C18.5 18.8431 17.1569 17.5 15.5 17.5H9.5C7.84315 17.5 6.5 18.8431 6.5 20.5V22.5H4.5V20.5C4.5 17.7386 6.73858 15.5 9.5 15.5H15.5C18.2614 15.5 20.5 17.7386 20.5 20.5V22.5ZM12.5 13.5C9.18629 13.5 6.5 10.8137 6.5 7.5C6.5 4.18629 9.18629 1.5 12.5 1.5C15.8137 1.5 18.5 4.18629 18.5 7.5C18.5 10.8137 15.8137 13.5 12.5 13.5ZM12.5 11.5C14.7091 11.5 16.5 9.70914 16.5 7.5C16.5 5.29086 14.7091 3.5 12.5 3.5C10.2909 3.5 8.5 5.29086 8.5 7.5C8.5 9.70914 10.2909 11.5 12.5 11.5Z" fill="#1C1C1C"/>
</svg>
