<svg width="25" height="25" viewBox="0 0 25 25" fill="none" xmlns="http://www.w3.org/2000/svg">
<path d="M6.5 8.5V7.5C6.5 4.18629 9.18629 1.5 12.5 1.5C15.8137 1.5 18.5 4.18629 18.5 7.5V8.5H20.5C21.0523 8.5 21.5 8.94772 21.5 9.5V21.5C21.5 22.0523 21.0523 22.5 20.5 22.5H4.5C3.94772 22.5 3.5 22.0523 3.5 21.5V9.5C3.5 8.94772 3.94772 8.5 4.5 8.5H6.5ZM19.5 10.5H5.5V20.5H19.5V10.5ZM11.5 16.2324C10.9022 15.8866 10.5 15.2403 10.5 14.5C10.5 13.3954 11.3954 12.5 12.5 12.5C13.6046 12.5 14.5 13.3954 14.5 14.5C14.5 15.2403 14.0978 15.8866 13.5 16.2324V18.5H11.5V16.2324ZM8.5 8.5H16.5V7.5C16.5 5.29086 14.7091 3.5 12.5 3.5C10.2909 3.5 8.5 5.29086 8.5 7.5V8.5Z" fill="#1C1C1C"/>
</svg>
