<svg width="137" height="137" viewBox="0 0 137 137" fill="none" xmlns="http://www.w3.org/2000/svg">
<path fill-rule="evenodd" clip-rule="evenodd" d="M73.2166 0H63.4543V43.2243L47.2622 3.14741L38.2108 6.8044L54.8224 47.9195L23.4665 16.5635L16.5635 23.4665L46.6168 53.5197L7.67004 36.5035L3.76158 45.4491L44.9719 63.4543H0V73.2166H44.9718L3.7616 91.2216L7.67004 100.167L46.6168 83.1512L16.5635 113.204L23.4665 120.107L54.8224 88.7513L38.2108 129.867L47.2622 133.523L63.4543 93.4466V136.671H73.2166V93.4466L89.4087 133.523L98.4597 129.867L81.8488 88.7513L113.204 120.107L120.107 113.204L90.0538 83.1512L129.001 100.167L132.909 91.2216L91.6993 73.2166H136.671V63.4543H91.6986L132.909 45.4491L129.001 36.5035L90.0538 53.5197L120.107 23.4664L113.204 16.5635L81.8488 47.9194L98.4597 6.8044L89.4087 3.14741L73.2166 43.2243V0Z" fill="#FC9B4E"/>
</svg>
