<?xml version="1.0" standalone="no"?>
<svg xmlns:xlink="http://www.w3.org/1999/xlink" id="wave" style="transform:rotate(180deg); transition: 0.3s" viewBox="0 0 1440 490" version="1.1" xmlns="http://www.w3.org/2000/svg"><defs><linearGradient id="sw-gradient-0" x1="0" x2="0" y1="1" y2="0"><stop stop-color="rgba(243, 106, 62, 1)" offset="0%"/><stop stop-color="rgba(255, 179, 11, 1)" offset="100%"/></linearGradient></defs><path style="transform:translate(0, 0px); opacity:1" fill="url(#sw-gradient-0)" d="M0,147L60,179.7C120,212,240,278,360,285.8C480,294,600,245,720,187.8C840,131,960,65,1080,65.3C1200,65,1320,131,1440,163.3C1560,196,1680,196,1800,163.3C1920,131,2040,65,2160,106.2C2280,147,2400,294,2520,326.7C2640,359,2760,278,2880,204.2C3000,131,3120,65,3240,49C3360,33,3480,65,3600,81.7C3720,98,3840,98,3960,98C4080,98,4200,98,4320,81.7C4440,65,4560,33,4680,24.5C4800,16,4920,33,5040,89.8C5160,147,5280,245,5400,310.3C5520,376,5640,408,5760,375.7C5880,343,6000,245,6120,245C6240,245,6360,343,6480,359.3C6600,376,6720,310,6840,245C6960,180,7080,114,7200,147C7320,180,7440,310,7560,351.2C7680,392,7800,343,7920,285.8C8040,229,8160,163,8280,163.3C8400,163,8520,229,8580,261.3L8640,294L8640,490L8580,490C8520,490,8400,490,8280,490C8160,490,8040,490,7920,490C7800,490,7680,490,7560,490C7440,490,7320,490,7200,490C7080,490,6960,490,6840,490C6720,490,6600,490,6480,490C6360,490,6240,490,6120,490C6000,490,5880,490,5760,490C5640,490,5520,490,5400,490C5280,490,5160,490,5040,490C4920,490,4800,490,4680,490C4560,490,4440,490,4320,490C4200,490,4080,490,3960,490C3840,490,3720,490,3600,490C3480,490,3360,490,3240,490C3120,490,3000,490,2880,490C2760,490,2640,490,2520,490C2400,490,2280,490,2160,490C2040,490,1920,490,1800,490C1680,490,1560,490,1440,490C1320,490,1200,490,1080,490C960,490,840,490,720,490C600,490,480,490,360,490C240,490,120,490,60,490L0,490Z"/></svg>